<?xml version="1.0" encoding="UTF-8" standalone="no"?>
<!-- Created with Inkscape (http://www.inkscape.org/) -->

<svg
   xmlns:dc="http://purl.org/dc/elements/1.1/"
   xmlns:cc="http://creativecommons.org/ns#"
   xmlns:rdf="http://www.w3.org/1999/02/22-rdf-syntax-ns#"
   xmlns:svg="http://www.w3.org/2000/svg"
   xmlns="http://www.w3.org/2000/svg"
   xmlns:sodipodi="http://sodipodi.sourceforge.net/DTD/sodipodi-0.dtd"
   xmlns:inkscape="http://www.inkscape.org/namespaces/inkscape"
   id="svg2"
   version="1.1"
   inkscape:version="0.91 r13725"
   width="1800"
   height="108"
   viewBox="0 0 1800 108"
   sodipodi:docname="footer.svg"
   inkscape:export-filename="/home/alessandro/Scrivania/footer.png"
   inkscape:export-xdpi="90"
   inkscape:export-ydpi="90">
  <metadata
     id="metadata8">
    <rdf:RDF>
      <cc:Work
         rdf:about="">
        <dc:format>image/svg+xml</dc:format>
        <dc:type
           rdf:resource="http://purl.org/dc/dcmitype/StillImage" />
        <dc:title></dc:title>
      </cc:Work>
    </rdf:RDF>
  </metadata>
  <defs
     id="defs6" />
  <sodipodi:namedview
     pagecolor="#ffffff"
     bordercolor="#666666"
     borderopacity="1"
     objecttolerance="10"
     gridtolerance="10"
     guidetolerance="10"
     inkscape:pageopacity="0"
     inkscape:pageshadow="2"
     inkscape:window-width="1920"
     inkscape:window-height="1056"
     id="namedview4"
     showgrid="false"
     inkscape:zoom="0.99222222"
     inkscape:cx="900"
     inkscape:cy="234.375"
     inkscape:window-x="1080"
     inkscape:window-y="864"
     inkscape:window-maximized="1"
     inkscape:current-layer="svg2" />
  <path
     style="fill:#eb941c"
     d="M 746.25,108 0,108 0,85.5 0,63 l 0.8281581,0 0.8281581,0 0.5652907,2.10937 c 0.3109098,1.16016 0.5710511,7.48829 0.5780918,14.0625 L 2.8125,91.125 l 2.2613458,0 2.2613457,0 0.6506927,-3.85142 0.6506927,-3.85142 -0.2426884,-8.1017 C 8.2604099,70.86452 8.2156177,65.00391 8.2943501,62.29687 L 8.4375,57.375 l 5.390625,0.0695 c 2.964844,0.0382 7.289062,0.35463 9.609375,0.70312 l 4.21875,0.63364 0.564099,21.8141 c 0.310255,11.99776 0.773922,22.02393 1.030371,22.28037 0.256448,0.25645 3.801144,-1.22583 7.877102,-3.29396 l 7.41083,-3.76023 9.341705,-2.36972 9.341705,-2.36972 9.4172,-0.5762 9.4172,-0.57619 1.106458,1.33321 1.106459,1.3332 0.287186,5.59257 0.287185,5.59259 10.110666,0.26642 10.110654,0.26643 5.3581,-5.54727 5.35808,-5.54725 5.625,-2.10935 5.625,-2.10936 7.23867,-0.46308 7.23867,-0.46308 7.8446,2.44582 7.8446,2.44582 4.26531,3.75448 4.26531,3.75448 1.09786,-1.32284 1.09786,-1.32284 -0.62891,-3.35232 -0.62889,-3.35231 1.56009,0 c 0.85806,0 7.54954,1.01569 14.86996,2.25709 l 13.30987,2.25708 15.9375,0.54035 c 8.76562,0.29719 19.94531,0.97659 24.84375,1.50977 4.89844,0.53318 14.39063,1.63066 21.09375,2.43884 l 12.1875,1.46942 2.07639,1.32623 2.07639,1.32622 6.98756,0 c 3.84316,0 7.65488,-0.25607 8.47048,-0.56905 l 1.48293,-0.56906 0,-13.77469 0,-13.7747 1.125,-1.125 1.125,-1.125 14.16457,0 14.16456,0 1.5522,1.17187 1.5522,1.17188 0.26761,6.05498 0.26761,6.055 2.34375,0.53505 2.34375,0.53505 1.31306,4.34261 1.31307,4.34261 7.12443,-0.40621 c 3.91844,-0.22341 10.61037,-0.88772 14.87097,-1.47623 l 7.74653,-1.07003 0.86538,-1.04272 0.86538,-1.04272 0.29434,-4.66369 0.29434,-4.6637 4.21875,-0.77403 c 2.32031,-0.42572 5.13285,-0.95229 6.25009,-1.17016 l 2.03134,-0.39611 1.71866,-3.51735 1.71866,-3.51735 5.76894,-0.27676 5.76894,-0.27677 2.70082,4.02677 2.70082,4.02676 5.31796,0.9375 5.31796,0.9375 0.91106,0.9375 0.91107,0.9375 0.30121,3.18856 0.30122,3.18856 2.61709,1.94545 2.61708,1.94545 9.57042,0.29887 9.57041,0.29888 1.31647,-0.89009 1.31647,-0.89007 0.3621,-10.12762 c 0.19915,-5.5702 0.56141,-10.32694 0.80501,-10.57055 0.24361,-0.2436 3.96443,-0.59007 8.26849,-0.76993 l 7.82557,-0.32702 2.37914,0.90455 2.37914,0.90454 0.33005,12.20104 0.33006,12.20104 1.22138,1.21792 1.22139,1.21792 7.45915,-0.13222 7.45915,-0.13224 2.33499,-1.52994 2.33498,-1.52995 3.51573,-5.57259 c 1.93365,-3.06493 3.74739,-5.58649 4.03052,-5.60346 0.28313,-0.017 1.02637,1.38387 1.65161,3.11297 l 1.13682,3.14382 3.68756,1.66286 3.68755,1.66286 2.08989,2.22457 2.08987,2.22457 9.96158,0 9.96158,0 1.01447,-1.01447 1.01447,-1.01447 1.98877,1.242 1.98877,1.24201 1.63739,-1.03283 1.63738,-1.03284 0,-1.67065 0,-1.67065 -1.63738,-1.03284 -1.63739,-1.03283 -1.77716,1.10986 -1.77718,1.10986 -0.56982,-0.56983 c -0.3134,-0.3134 -0.56982,-1.96123 -0.56982,-3.66183 l 0,-3.09202 1.81337,-0.97049 1.81337,-0.97048 3.80116,0 3.80117,0 5.57937,-4.24315 c 3.06865,-2.33373 7.06763,-4.86498 8.88661,-5.625 l 3.30722,-1.38185 8.79103,0 8.79101,0 5.72202,3.69832 5.72201,3.69832 0.28271,5.21872 0.2827,5.2187 0.9375,0.0716 0.9375,0.0716 0.67665,-3.96369 0.67666,-3.9637 1.57802,-1.74369 1.57803,-1.74369 1.34094,0 1.34095,0 2.905,-3.28125 2.905,-3.28125 1.12001,0 1.12001,0 1.1369,-2.74473 c 0.6253,-1.50959 1.92732,-3.46004 2.89339,-4.33432 l 1.75649,-1.58959 2.39898,0.45858 2.39897,0.4586 0.45689,-0.73926 c 0.25129,-0.4066 0.87534,-2.98674 1.38677,-5.73365 0.51143,-2.74691 1.40163,-6.15454 1.97822,-7.57251 l 1.04834,-2.57812 7.90286,0 7.90284,0 1.47436,3.51562 c 0.81089,1.9336 1.69009,5.20313 1.95377,7.26563 0.26368,2.0625 0.85984,4.23379 1.32478,4.82509 l 0.84536,1.07509 1.60616,-0.39532 1.60615,-0.39533 3.02228,1.86963 3.0223,1.86963 1.383,3.30997 1.383,3.30999 2.36997,0 2.36997,0 1.34202,-2.10938 1.34202,-2.10937 1.15649,-8.67188 1.15648,-8.67187 0.76188,0 0.76187,0 0.45902,3.04687 c 0.25246,1.67578 0.79892,5.78907 1.21436,9.14063 l 0.75534,6.09375 3.63611,-0.22031 3.63612,-0.22029 10.89513,-4.80179 c 5.99233,-2.64098 13.06374,-6.02682 15.71426,-7.52408 l 4.81911,-2.7223 1.50901,0.57906 1.50901,0.57906 0,4.01063 0,4.01062 2.34375,1.53569 2.34375,1.53569 0,3.6761 0,3.67611 2.21546,2.57564 2.21547,2.57563 9.15644,1.16106 9.15645,1.16104 0.76819,0.76873 0.7682,0.76871 0.75171,6.09375 0.7517,6.09375 1.3628,0 1.3628,0 0.65194,-2.34375 0.65194,-2.34375 0.0935,-10.47991 0.0935,-10.47991 1.47321,-1.47322 1.47322,-1.47321 14.31898,0 14.31898,0 1.55155,1.71444 1.55156,1.71444 0,11.90874 0,11.90872 1.50086,0.57594 1.50087,0.57593 0.82875,-1.30848 c 0.45581,-0.71967 1.47563,-3.50927 2.26624,-6.19912 l 1.4375,-4.89064 4.82626,-1.43324 c 2.65443,-0.78829 5.49439,-2.01289 6.31101,-2.72133 0.81662,-0.70845 2.75038,-1.58235 4.29726,-1.94201 1.54687,-0.35965 6.1875,-1.06812 10.3125,-1.57437 l 7.5,-0.92046 1.52198,-1.97736 1.52199,-1.97738 1.53803,2.34735 1.53804,2.34734 2.30296,1.0493 2.30296,1.04931 6.11892,-0.5714 6.11892,-0.5714 1.05477,-1.27091 c 0.58008,-0.69904 1.59074,-1.27095 2.24588,-1.27095 l 1.19115,0 0.56906,1.48293 c 0.31298,0.8156 0.57481,2.60857 0.58185,3.98437 0.008,1.37579 0.26718,3.45067 0.5781,4.61082 l 0.56528,2.10938 1.32011,0 1.32012,0 0.91429,-2.40478 c 0.50287,-1.32263 0.92076,-3.74841 0.92865,-5.39063 0.007,-1.64221 0.3243,-3.44251 0.70313,-4.00065 l 0.68877,-1.0148 5.54698,-1.09457 5.54698,-1.09457 7.10927,0.016 7.10927,0.016 7.03125,1.98018 7.03125,1.98018 4.45312,-0.0996 c 2.44922,-0.0548 5.82422,-0.12593 7.5,-0.15812 1.67579,-0.0322 4.99774,0.20726 7.38214,0.53214 l 4.33526,0.59068 2.69599,-1.32962 2.69599,-1.32963 3.6743,1.97132 3.6743,1.97131 1.09174,3.25766 1.09175,3.25766 2.2652,1.15806 2.26521,1.15805 3.28125,0.002 c 1.80469,9.4e-4 6.31594,0.71152 10.02497,1.57895 l 6.74372,1.57716 1.359,-1.12785 1.359,-1.12784 0.7605,-10.51542 0.7604,-10.51541 0.65354,5.15625 c 0.35934,2.83593 0.69515,7.99418 0.74615,11.46276 l 0.0928,6.30651 2.20828,1.44695 2.20838,1.44695 6.4635,0.21529 6.46359,0.21529 0.30422,-3.73812 0.30422,-3.73811 1.08825,-1.31127 c 0.5986,-0.72119 2.62575,-2.28184 4.50497,-3.4681 l 3.41662,-2.15684 1.14422,-9.34097 1.14432,-9.34099 1.67371,-2.75229 1.67382,-2.75228 4.31503,-2.02831 c 2.37328,-1.11557 8.64413,-3.33734 13.93533,-4.93728 l 9.6203,-2.90898 13.5107,0.17997 13.5107,0.17995 2.6123,1.93129 2.6121,1.93128 3.3629,-2.9526 3.3628,-2.9526 2.132,0 2.1319,0 1.6232,-1.18686 1.6231,-1.18686 1.3534,-7.75281 c 0.7444,-4.26405 1.844,-8.687 2.4435,-9.82877 0.5997,-1.14177 2.3623,-3.53972 3.9174,-5.32876 l 2.8271,-3.25282 2.6529,-5.85085 2.653,-5.85086 1.8619,-0.99644 1.8618,-0.99645 4.9861,2.13136 c 2.7423,1.17226 9.5398,4.63549 15.1056,7.69609 l 10.1195,5.56473 2.3797,3.11987 2.3797,3.11988 2.1766,5.99648 2.1765,5.9965 0.9223,7.81891 c 0.5072,4.30039 1.4472,12.83588 2.0887,18.96775 l 1.1664,11.14884 -1.0379,7.13241 -1.0379,7.13241 0.636,0.63016 c 0.3498,0.34661 2.2111,0.9196 4.1363,1.27334 l 3.5002,0.64315 0.9473,-2.49137 0.9471,-2.49137 -0.8422,-3.74863 -0.8423,-3.74862 3.71,-2.34198 3.7099,-2.34198 -0.5997,-2.06635 -0.5997,-2.06635 -1.8975,-1.64063 c -1.0435,-0.90234 -2.2689,-1.64062 -2.723,-1.64062 -0.4541,0 -1.3526,0.84374 -1.9967,1.875 -0.644,1.03125 -1.4913,1.875 -1.8829,1.875 l -0.712,0 0,-1.8534 0,-1.85338 2.3437,-1.53569 2.3438,-1.53568 0,-1.80016 0,-1.80017 -1.5177,-2.31629 -1.5177,-2.3163 1.1676,-2.81889 1.1677,-2.8189 1.9907,-0.49582 c 1.0949,-0.27271 3.4669,-0.37281 5.2713,-0.22245 l 3.2807,0.27338 0.3001,-2.10938 0.3002,-2.10937 0.8723,0 c 0.4798,0 1.753,0.88072 2.8294,1.95717 1.0765,1.07644 2.5705,3.42505 3.3202,5.21912 l 1.3629,3.26195 4.6486,2.88976 4.6487,2.88976 0,2.63938 0,2.63938 -1.9201,1.02759 -1.92,1.02758 0.5929,2.05227 c 0.3261,1.12876 1.4443,3.25384 2.4849,4.72241 l 1.892,2.67012 -1.1537,4.12041 -1.1536,4.1204 1.126,1.35687 1.1262,1.35688 1.2071,-0.46321 1.2071,-0.46321 0.6285,-7.53688 0.6286,-7.5369 -1.0578,-2.9598 -1.0578,-2.9598 3.8564,-6.5625 c 2.121,-3.60938 4.269,-8.03907 4.7734,-9.84375 l 0.9169,-3.28125 0.01,-8.18983 0.01,-8.18982 3.9844,-2.58265 c 2.1914,-1.42046 4.294,-3.00848 4.6722,-3.52893 0.3784,-0.52045 0.8352,-1.36737 1.0152,-1.88205 l 0.3271,-0.93577 5.3564,2.71006 5.3563,2.71007 1.2995,3.11036 1.2997,3.11035 3.5265,1.67785 3.5266,1.67785 0.7793,3.03509 0.7794,3.03508 2.5543,1.30791 c 1.4049,0.71936 5.7185,2.16763 9.5856,3.2184 3.8672,1.05077 13.7254,3.03284 21.9072,4.4046 l 14.8759,2.49413 5.3652,0.15864 5.3652,0.15865 1.5558,-1.28666 1.5557,-1.28667 0,-4.10395 0,-4.10397 0.762,0 c 0.4192,0 2.9504,1.05569 5.625,2.34598 l 4.863,2.34596 0,0.9554 c 0,0.52546 2.3204,3.31307 5.1563,6.19469 l 5.1562,5.23928 0,13.5558 0,13.5558 2.0999,-0.29958 2.0998,-0.29958 0.1843,-1.40625 c 0.1014,-0.77343 0.4406,-3.36112 0.7538,-5.7504 l 0.5695,-4.34416 2.7713,-0.55428 2.7714,-0.55428 0,-6.98772 0,-6.98772 1.4732,-1.47322 1.4733,-1.47322 8.3073,0 8.3074,0 0.5951,-1.875 0.5951,-1.875 5.0813,0 5.0813,0 2.3673,-3.75 2.3673,-3.75 1.7094,0 1.7095,0 3.3664,3.75 3.3665,3.75 5.1331,0 5.1331,0 0.9929,2.84817 0.9929,2.84816 8.7011,-0.27004 8.7011,-0.27004 0.4851,-2.8125 0.485,-2.8125 6.5533,0 6.5533,0 0.4687,13.125 0.4688,13.125 4.8643,0.48936 c 2.6754,0.26914 5.0557,0.69101 5.2895,0.9375 0.2337,0.24648 0.7869,3.19033 1.2293,6.54189 l 0.8044,6.09375 11.6591,0.26464 11.6592,0.26463 1.2314,1.02203 1.2315,1.02204 0,5.04145 0,5.04146 1.875,0 1.875,0 0.014,-7.73437 0.014,-7.73438 0.7871,-1.24141 0.787,-1.24143 3.183,0.30393 3.1829,0.30391 0.2639,7.03125 0.2639,7.03125 1.4679,1.10749 1.4678,1.10748 1.3152,-0.50466 1.3151,-0.50466 0,-17.12865 0,-17.12866 1.3408,-1.11279 1.3408,-1.11278 3.5811,0.29486 3.581,0.29487 0.589,16.40625 c 0.3239,9.02344 0.6403,17.14454 0.7031,18.04688 l 0.1064,1.64055 0.9375,0 0.9375,0 0,-4.24195 0,-4.24196 2.2432,-0.85284 2.243,-0.85283 1.9756,0.51663 1.9756,0.51663 0,4.13884 0,4.13883 1.4467,0.55514 1.4467,0.55515 0.5965,-0.59661 0.5968,-0.5966 0.3574,-12.87858 c 0.1966,-7.08324 0.5295,-13.40594 0.7398,-14.05047 l 0.3823,-1.17188 2.7867,0 2.7866,0 0.5811,0.94044 0.5813,0.94045 -0.056,9.60643 c -0.031,5.28353 0.2052,11.42015 0.5249,13.63691 l 0.5815,4.03049 2.6991,0.53982 2.6992,0.53984 0,0.82031 0,0.82031 -746.25006,0 z m -295.76601,-8.10432 1.20625,-0.46288 0.54832,-2.04452 c 0.30159,-1.1245 0.5541,-3.99678 0.56114,-6.38287 l 0.0128,-4.33833 -1.35465,-1.12425 -1.35465,-1.12426 -2.10556,0.30634 -2.10557,0.30634 -0.83031,3.22043 -0.83031,3.22042 0.57795,3.08076 0.57795,3.08075 1.9452,1.36247 1.9452,1.36247 1.20625,-0.46287 z M 757.5,100.5 l 2.4375,0 1.125,-1.125 1.125,-1.125 0,-4.96875 0,-4.96875 -1.875,-1.875 -1.875,-1.875 -1.8982,0 -1.89821,0 -0.91429,2.40478 -0.9143,2.40478 0,4.43897 0,4.43897 1.125,1.125 1.125,1.125 2.4375,0 z m -10.88516,-0.9375 1.36118,0 0.6131,-2.79143 0.6131,-2.79144 -0.61871,-1.94938 -0.61871,-1.94938 -1.56053,0.29537 -1.56052,0.29537 -0.30043,3.12844 c -0.16524,1.72064 -0.073,3.72109 0.20495,4.44545 l 0.50538,1.317 1.36119,0 z m 22.0972,0 0.93974,0 0.56431,-2.2484 c 0.31037,-1.23662 0.42387,-3.23621 0.25223,-4.44354 l -0.31207,-2.19516 -1.60713,-0.30624 -1.60713,-0.30624 -0.62123,2.47517 -0.62123,2.47517 1.03639,2.27462 1.03638,2.27462 0.93974,0 z m 281.04676,0 1.4998,0 1.7145,-1.55155 1.7144,-1.55156 0,-5.05355 0,-5.05357 -2.3704,-2.37038 -2.3704,-2.37039 -1.1452,0.37767 c -0.6299,0.2077 -1.6664,1.39902 -2.3033,2.64736 l -1.158,2.26972 -0.014,4.85491 -0.014,4.85491 1.4732,1.47321 1.4733,1.47322 1.4998,0 z m 30.3829,0 c 0.364,0 1.3248,-0.66294 2.1351,-1.47322 l 1.4732,-1.47321 0,-4.78109 0,-4.78109 -1.5516,-1.71445 -1.5515,-1.71444 -1.638,0 -1.6379,0 -1.0293,2.95239 -1.0292,2.95241 0,3.55694 0,3.55694 2.0836,1.45941 c 1.146,0.80267 2.3814,1.45941 2.7456,1.45941 z m -55.4893,-1.12883 2.3788,-0.27742 0.2917,-4.05366 0.2917,-4.05366 -1.1096,-1.33696 -1.1096,-1.33697 -1.6599,0 -1.6599,0 -0.569,1.48293 c -0.3131,0.8156 -0.5691,3.0656 -0.5691,5 l 0,3.51707 0.6681,0.66804 0.668,0.66804 2.3788,-0.27741 z m 11.9083,0.19133 2.1233,0 0.9705,-1.81337 0.9705,-1.81337 0,-3.13428 0,-3.13428 -1.4594,-2.0836 -1.4594,-2.0836 -1.8451,0 -1.845,0 -0.9144,2.40478 -0.9142,2.40478 0,3.50147 0,3.50147 1.125,1.125 1.125,1.125 2.1232,0 z m 29.2055,-0.17819 2.515,-0.29056 0.8306,-4.29404 0.8305,-4.29403 -1.3119,-2.73722 -1.3119,-2.73721 -2.2889,0 -2.2888,0 -0.6519,2.34375 c -0.3586,1.28906 -0.6941,3.74257 -0.7454,5.45226 l -0.094,3.1085 1.0006,1.86956 1.0005,1.86955 2.5151,-0.29056 z m -52.8447,-0.75931 1.4178,0 0.6213,-2.4754 0.6212,-2.47541 -0.8603,-2.44647 -0.8604,-2.44647 -1.3837,0 -1.3836,0 -0.2969,3.61421 c -0.1633,1.98782 -0.071,4.20267 0.205,4.92188 l 0.5017,1.30766 1.4179,0 z m 79.0316,-1.17817 1.1719,-0.92641 -0.014,-4.33833 -0.014,-4.33834 -0.8286,-1.30849 -0.8286,-1.30848 -1.5008,0.57594 -1.5008,0.57593 0,5.5763 0,5.5763 1.1718,0.42099 1.1719,0.42099 1.1719,-0.92641 z m 9.6094,1.17817 c 0.3094,0 1.0688,-0.50625 1.6875,-1.125 l 1.125,-1.125 0,-2.56397 c 0,-1.41019 -0.4115,-3.64612 -0.9142,-4.96875 l -0.9144,-2.40478 -1.3292,0 -1.3291,0 -0.569,1.48293 c -0.3131,0.8156 -0.5691,3.05154 -0.5691,4.96875 l 0,3.48582 1.125,1.125 c 0.6188,0.61875 1.3781,1.125 1.6875,1.125 z m -94.9424,-3.04688 c 0.2158,-0.90234 0.2158,-2.3789 0,-3.28125 l -0.3924,-1.64062 -0.7141,1.64062 -0.7142,1.64063 0.7142,1.64062 0.7141,1.64063 0.3924,-1.64063 z m 103.4352,1.17188 0.8822,0 -0.066,-2.10938 c -0.037,-1.16015 -0.3882,-2.93338 -0.7822,-3.94049 l -0.7163,-1.83111 -0.6199,3.09927 -0.6199,3.09928 0.52,0.84122 c 0.2859,0.46267 0.9168,0.84121 1.402,0.84121 z m 6.5072,-1.875 0.9375,0 0,-2.34375 0,-2.34375 -0.9375,0 -0.9375,0 0,2.34375 0,2.34375 0.9375,0 z m 7.4447,-1.875 0.9928,0 0,-0.9375 c 0,-0.51563 -0.186,-0.9375 -0.4134,-0.9375 -0.2274,0 -0.6742,0.42187 -0.9928,0.9375 l -0.5794,0.9375 0.9928,0 z m -115.1325,-16.19884 0.9362,-1.66758 -0.2961,-2.08242 -0.2961,-2.08241 -0.9375,0 -0.9375,0 -0.3085,2.17756 c -0.1697,1.19766 -0.036,2.88516 0.2975,3.75 l 0.6059,1.57244 0.9361,-1.66759 z m 5.9105,0.9118 0.996,-0.3261 0.3027,-3.09389 0.3027,-3.09389 -1.0449,-1.04483 -1.0448,-1.04482 -0.8841,1.39841 c -0.4862,0.76912 -0.8906,2.48825 -0.8985,3.82028 -0.01,1.33204 0.2758,2.71192 0.6302,3.06641 0.3545,0.35449 1.0928,0.49779 1.6407,0.31843 z m 138.7601,0.0975 3.7985,-0.2792 0,-3.75 0,-3.75 -5.1563,0 -5.1562,0 -0.3098,2.18669 -0.3097,2.18668 1.6675,1.84252 1.6674,1.8425 3.7986,-0.27919 z m -151.3578,-1.68545 0.9375,0 0,-1.875 0,-1.875 -0.9375,0 -0.9375,0 0,1.875 0,1.875 0.9375,0 z m 107.3438,-1.875 1.514,0 -0.2883,-3.98438 -0.2882,-3.98437 -0.9375,0 -0.9375,0 -0.2883,3.98437 -0.2883,3.98438 1.5141,0 z m -87.3131,-1.20815 c 0.511,-0.17033 1.3739,-1.01495 1.9177,-1.87694 l 0.9886,-1.56723 -1.5348,-1.53477 -1.5348,-1.53477 -1.0274,0.63501 -1.0275,0.635 0,2.13218 c 0,1.17269 0.2901,2.42221 0.6445,2.7767 0.3545,0.35449 1.0627,0.50517 1.5737,0.33482 z m 79.4827,0.27065 1.7009,0 0.6056,-2.41288 0.6055,-2.41288 -1.0363,-2.27462 -1.0364,-2.27462 -1.3261,0 -1.326,0 -0.569,1.48293 c -0.3131,0.8156 -0.5691,2.64373 -0.5691,4.0625 0,1.41876 0.2813,2.86082 0.625,3.20457 0.3437,0.34375 1.3904,0.625 2.3259,0.625 z m -62.904,-0.95185 c 0.7992,0.007 1.9594,-0.4919 2.5781,-1.11065 l 1.125,-1.125 0,-2.90625 0,-2.90625 -1.125,-1.125 -1.125,-1.125 -2.1009,0 -2.101,0 -0.6186,1.00103 c -0.3403,0.55057 -0.6605,2.4774 -0.7117,4.28186 l -0.093,3.28083 1.3595,0.86003 c 0.7477,0.47303 2.0133,0.8665 2.8126,0.8744 z m 40.7344,0.0143 1.9687,0 1.125,-1.125 1.125,-1.125 0,-3.72306 0,-3.72305 -1.5516,-1.71445 -1.5515,-1.71444 -1.7529,0 -1.7529,0 -0.9143,2.40478 c -0.5028,1.32263 -0.9143,3.7695 -0.9143,5.4375 l 0,3.03272 1.125,1.125 1.125,1.125 1.9688,0 z m 36.2812,-0.75 1.125,-1.125 -1.125,-1.125 -1.125,-1.125 0,2.25 0,2.25 1.125,-1.125 z m -65.4023,-0.48047 0.9961,-0.33203 0,-2.25279 0,-2.25278 -1.6407,-0.31596 -1.6406,-0.31595 0,2.25624 c 0,1.24093 0.2901,2.54628 0.6445,2.90078 0.3545,0.35448 1.0928,0.49511 1.6407,0.31249 z m 15.5742,0.21895 c 0.2836,0.0407 1.0219,-0.43223 1.6406,-1.05098 l 1.125,-1.125 0,-3.91646 0,-3.91646 -1.4062,-1.16708 -1.4063,-1.16708 -1.4062,1.16708 -1.4063,1.16708 0,4.49459 0,4.49458 1.1719,0.47286 c 0.6445,0.26007 1.4039,0.50617 1.6875,0.54687 z m 25.5,-0.0951 2.1094,-0.29958 0.2948,-3.58105 0.2949,-3.58106 -1.1224,-1.35238 -1.1224,-1.35238 -1.2819,1.06385 -1.2818,1.06385 0,4.16917 0,4.16916 2.1094,-0.29958 z m -76.4171,-5.63223 1.6299,-0.31388 0.3139,-1.62986 0.3138,-1.62986 -1.9437,0 -1.9437,0 0,1.94374 0,1.94375 1.6298,-0.31389 z m 93.0577,-13.88609 0.9375,0 0,-2.8125 0,-2.8125 -0.9375,0 -0.9375,0 0,2.8125 0,2.8125 0.9375,0 z m -7.0898,-1.23003 c 0.5478,-0.18238 1.1389,-1.06829 1.3135,-1.96868 0.1746,-0.90041 0.061,-2.65842 -0.2523,-3.90669 l -0.5696,-2.2696 -1.3885,0 -1.3883,0 0,3.59375 0,3.59375 0.6445,0.64453 c 0.3545,0.35449 1.0928,0.49531 1.6407,0.31294 z m -9.8309,-1.79224 1.452,-0.27457 0.2818,-3.3537 0.2817,-3.35369 -1.4125,-1.17234 -1.4127,-1.17235 -0.9785,0.60479 -0.9786,0.60478 0,3.53843 0,3.53842 0.6574,0.65741 c 0.3616,0.36157 1.3108,0.53385 2.1094,0.38282 z m -10.548,-1.66523 2.1562,0 0.108,-1.64063 c 0.059,-0.90234 0.018,-2.48437 -0.092,-3.51562 -0.1097,-1.03125 -0.6318,-2.40234 -1.1602,-3.04688 l -0.9609,-1.17187 -1.6599,0 -1.6598,0 -0.5691,1.48293 c -0.313,0.8156 -0.5691,2.41873 -0.5691,3.5625 l 0,2.07957 1.125,1.125 1.125,1.125 2.1563,0 z m 429.6562,61.875 -15.9375,0 0,-0.71271 c 0,-0.39198 1.0467,-1.84149 2.3259,-3.22113 l 2.326,-2.50844 4.0022,-0.53115 c 2.2012,-0.29214 5.8969,-0.63559 8.2128,-0.76324 l 4.2106,-0.23208 0.2809,-1.875 c 0.1544,-1.03125 1.1794,-3.87891 2.2777,-6.32813 l 1.9969,-4.45312 1.2269,0 1.227,0 1.8941,3.71265 1.894,3.71265 0,6.59985 0,6.59985 -15.9375,0 z m 30.9375,0 -12.1875,0 0,-0.9375 0,-0.9375 12.1875,0 12.1875,0 0,0.9375 0,0.9375 -12.1875,0 z m 31.8554,0 -14.2435,0 0.6238,-1.64063 c 0.3431,-0.90234 3.3772,-5.96484 6.7426,-11.25 l 6.1189,-9.60937 0.8693,0 0.8693,0 3.1196,4.92187 c 1.7157,2.70704 4.6999,7.76954 6.6315,11.25 l 3.5119,6.32813 -14.2434,0 z m 104.9305,0 -86.2313,0 0.2696,-8.67188 0.2696,-8.67187 7.5,0 7.5,0 0.4893,4.86435 c 0.2692,2.6754 0.7603,5.13536 1.0916,5.46658 l 0.6022,0.60223 1.9016,-1.0177 1.9016,-1.0177 0.2881,-3.98013 0.288,-3.98013 12.8433,-0.26052 12.8432,-0.26052 0.4977,3.07302 c 0.2737,1.69016 0.6115,4.12771 0.7505,5.41677 l 0.2528,2.34375 1.4063,0 1.4062,0 0.4688,-7.87151 0.4687,-7.87151 1.4955,-0.93841 1.4955,-0.93842 2.4511,0.61517 2.4511,0.61519 0.2722,7.726 0.2721,7.72599 2.3438,0 2.3437,0 0.4688,-7.96875 0.4687,-7.96875 4.6875,0 4.6875,0 0.2357,4.6875 c 0.1296,2.57812 0.4651,6.05859 0.7456,7.73437 l 0.5099,3.04688 0.8951,0 0.895,0 0,-4.20089 0,-4.20089 2.2696,-0.56963 c 1.2483,-0.3133 3.0412,-0.42315 3.9844,-0.24409 l 1.7147,0.32552 0.4688,4.67123 0.4687,4.67122 1.6407,0.31125 1.6406,0.31126 0,-13.59553 0,-13.59552 1.546,-1.54601 1.5461,-1.546 1.9696,0.52874 c 1.0832,0.2908 2.286,0.5345 2.6727,0.54154 l 0.7031,0.0128 0,6.15538 0,6.15538 0.9705,1.81337 0.9705,1.81337 7.3903,0 c 4.0647,0 8.0576,0.25607 8.8733,0.56905 l 1.4829,0.56906 0,4.61661 0,4.61663 1.5008,0.57593 1.5009,0.57594 0.8286,-1.30848 0.8285,-1.30849 0.014,-7.26563 0.014,-7.26562 3.6497,0 3.6497,0 0.5691,1.48293 c 0.313,0.8156 0.569,4.40154 0.569,7.96875 l 0,6.48582 2.3259,0 2.3259,0 0.4812,-2.10938 c 0.2647,-1.16015 0.5891,-4.85156 0.721,-8.20312 l 0.2398,-6.09375 3.5811,-0.29487 3.581,-0.29486 1.3408,1.11278 1.3408,1.11278 0,6.86114 0,6.86113 0.8177,0.50535 0.8177,0.50536 0.4865,-4.31598 0.4865,-4.31598 1.2739,-0.8072 c 0.7007,-0.44395 1.9822,-0.81365 2.8477,-0.82155 l 1.5736,-0.0143 1.4733,1.47321 1.4731,1.47322 0,3.75177 0,3.75178 1.6407,-0.31417 1.6406,-0.31418 0.4687,-14.05143 0.4688,-14.05145 3.75,0 3.75,0 0.4687,4.6875 0.4688,4.6875 17.5781,0.25506 17.5781,0.25506 0,14.04182 0,14.04181 -14.9461,0 -14.946,0 -0.2883,-3.98438 -0.2883,-3.98437 -2.3438,0 -2.3437,0 -0.2883,3.98437 -0.2883,3.98438 -86.2312,0 z"
     id="path3441"
     inkscape:connector-curvature="0" />
</svg>
